<svg width="27" height="20" viewBox="0 0 27 20" fill="none" xmlns="http://www.w3.org/2000/svg">
<path fill-rule="evenodd" clip-rule="evenodd" d="M7.53092 6.54411C7.99305 6.54411 8.36768 6.22818 8.36768 5.83846C8.36768 5.44874 7.99305 5.13281 7.53092 5.13281C7.06879 5.13281 6.69415 5.44874 6.69415 5.83846C6.69415 6.22818 7.06879 6.54411 7.53092 6.54411Z" fill="black"/>
<path fill-rule="evenodd" clip-rule="evenodd" d="M13.1092 6.54411C13.5713 6.54411 13.9459 6.22818 13.9459 5.83846C13.9459 5.44874 13.5713 5.13281 13.1092 5.13281C12.647 5.13281 12.2724 5.44874 12.2724 5.83846C12.2724 6.22818 12.647 6.54411 13.1092 6.54411Z" fill="black"/>
<path fill-rule="evenodd" clip-rule="evenodd" d="M16.4562 4.19218C16.9183 4.19218 17.293 3.87625 17.293 3.48653C17.293 3.09681 16.9183 2.78088 16.4562 2.78088C15.9941 2.78088 15.6194 3.09681 15.6194 3.48653C15.6194 3.87625 15.9941 4.19218 16.4562 4.19218Z" fill="black"/>
<path fill-rule="evenodd" clip-rule="evenodd" d="M19.8038 6.54411C20.2659 6.54411 20.6406 6.22818 20.6406 5.83846C20.6406 5.44874 20.2659 5.13281 19.8038 5.13281C19.3417 5.13281 18.967 5.44874 18.967 5.83846C18.967 6.22818 19.3417 6.54411 19.8038 6.54411Z" fill="black"/>
<path fill-rule="evenodd" clip-rule="evenodd" d="M10.3198 4.19218C10.7819 4.19218 11.1566 3.87625 11.1566 3.48653C11.1566 3.09681 10.7819 2.78088 10.3198 2.78088C9.85766 2.78088 9.48303 3.09681 9.48303 3.48653C9.48303 3.87625 9.85766 4.19218 10.3198 4.19218Z" fill="black"/>
<path fill-rule="evenodd" clip-rule="evenodd" d="M26.7765 9.83673C26.775 9.3534 26.4803 8.90432 25.9955 8.64654C25.3596 5.72986 22.8939 0 13.3882 0C4.00532 0 1.48386 5.67341 0.808873 8.63243C0.308313 8.88715 0.00166959 9.34371 0 9.83673V11.248C0.309706 11.6822 0.309706 12.2251 0 12.6593V14.0706C0.000767259 14.5566 0.297922 15.008 0.78656 15.2655C1.13687 16.6569 2.17641 17.8555 3.64272 18.5585C4.57788 18.9976 5.62427 19.2412 6.69412 19.2689H19.5245C23.0891 19.2689 24.9356 17.2178 25.7389 15.3972C26.3657 15.1801 26.7754 14.6656 26.7765 14.0941V12.6828C26.4668 12.2487 26.4668 11.7057 26.7765 11.2715V9.83673ZM13.946 9.83669H22.8715L19.5245 12.6593L13.946 9.83669ZM23.9874 10.7776C24.2796 10.5174 24.4738 10.1899 24.5452 9.83669C24.5452 10.0296 24.5452 10.3071 24.5452 10.3071V11.248H23.4296L23.9874 10.7776ZM13.0758 11.0457L13.4719 11.248H2.23133V10.3071C2.23133 10.3071 2.23133 10.1331 2.25922 9.83669H12.2669C12.2666 10.3314 12.5735 10.7901 13.0758 11.0457ZM2.23176 12.6597C2.29419 13.0154 2.48962 13.345 2.7896 13.6006L3.34745 14.071H2.23176C2.2206 13.9157 2.23176 12.909 2.23176 12.6597ZM3.90536 12.6597H11.7152L7.25242 15.5152L3.90536 12.6597ZM12.747 13.784C13.1627 13.5165 13.4062 13.1006 13.4053 12.6597H16.2782L18.6769 13.8687C19.3347 14.2008 20.1759 14.1136 20.7186 13.657L21.9013 12.6597H24.5566V13.6006C24.5566 13.6006 24.5566 13.784 24.4506 14.071H12.2896L12.747 13.784ZM13.3884 1.36945C21.2484 1.36945 23.569 5.80562 24.2552 8.42592H2.51041C3.20772 5.80562 5.52835 1.36945 13.3884 1.36945ZM19.5248 17.8348H6.6944C6.6944 17.8348 3.68763 17.8348 2.61099 15.4827H4.87583L6.09751 16.5129C6.68913 17.0133 7.62838 17.0676 8.29541 16.6399L10.0415 15.4874H23.9876C23.1797 16.9441 21.4314 17.8637 19.5248 17.8348Z" fill="black"/>
</svg>
