<svg width="27" height="31" viewBox="0 0 27 31" fill="none" xmlns="http://www.w3.org/2000/svg">
<path fill-rule="evenodd" clip-rule="evenodd" d="M22.0147 2.16337e-05H4.97107C2.22562 2.16337e-05 0 2.36964 0 5.29271V28.7317C0 29.9845 0.953838 31 2.13046 31H6.39137C7.30917 31.0015 8.12467 30.3769 8.41531 29.45L9.35271 26.4634H17.6473L18.5847 29.45C18.8753 30.3769 19.6908 31.0015 20.6086 31H24.8695C26.0462 31 27 29.9845 27 28.7317V5.29271C27 3.88637 26.4743 2.53786 25.539 1.54486C24.6037 0.55185 23.3356 -0.00399646 22.0147 2.16337e-05ZM4.97107 2.26829H22.0147C23.5836 2.26829 24.8553 3.62236 24.8553 5.29268V12.0976H2.13046V5.29268C2.13046 3.62236 3.40224 2.26829 4.97107 2.26829ZM20.5944 28.7317L19.1741 24.1951H7.81168L6.39137 28.7317H2.13046V14.3659H24.8553V28.7317H20.5944Z" fill="black"/>
<path fill-rule="evenodd" clip-rule="evenodd" d="M7.45643 15.8779C5.6915 15.8779 4.26074 17.4013 4.26074 19.2804C4.26074 21.1595 5.6915 22.6828 7.45643 22.6828C9.22136 22.6828 10.6521 21.1595 10.6521 19.2804C10.6482 17.403 9.21974 15.8821 7.45643 15.8779ZM7.4566 20.4146C6.86829 20.4146 6.39137 19.9069 6.39137 19.2805C6.39137 18.6541 6.86829 18.1463 7.4566 18.1463C8.04491 18.1463 8.52183 18.6541 8.52183 19.2805C8.52183 19.9069 8.04491 20.4146 7.4566 20.4146Z" fill="black"/>
<path fill-rule="evenodd" clip-rule="evenodd" d="M19.5292 15.8779C17.7643 15.8779 16.3335 17.4013 16.3335 19.2804C16.3335 21.1595 17.7643 22.6828 19.5292 22.6828C21.2941 22.6828 22.7249 21.1595 22.7249 19.2804C22.721 17.403 21.2925 15.8821 19.5292 15.8779ZM19.5292 20.4146C18.9409 20.4146 18.464 19.9069 18.464 19.2805C18.464 18.6541 18.9409 18.1463 19.5292 18.1463C20.1175 18.1463 20.5944 18.6541 20.5944 19.2805C20.5944 19.9069 20.1175 20.4146 19.5292 20.4146Z" fill="black"/>
</svg>
