<svg width="18" height="17" viewBox="0 0 18 17" fill="none" xmlns="http://www.w3.org/2000/svg">
<path fill-rule="evenodd" clip-rule="evenodd" d="M9 0.395508C4.02944 0.395508 0 4.01554 0 8.48107C0 12.9466 4.02944 16.5666 9 16.5666C13.9706 16.5666 18 12.9466 18 8.48107C18 4.01554 13.9706 0.395508 9 0.395508ZM16.7523 8.11376H13.9091C13.7864 5.69912 12.645 3.22935 10.7345 1.67839C14.1137 2.37742 16.5688 5.00285 16.7523 8.11376ZM8.18179 2.27323V8.11321H5.31815C5.43679 5.80882 6.44724 3.55957 8.18179 2.27323ZM8.18175 9.21474V14.6284C6.56584 13.3494 5.5513 11.2729 5.31812 9.21474H8.18175ZM9.40918 14.7975V9.21474H12.6819C12.4119 11.306 11.2051 13.5111 9.40918 14.7975ZM9.40918 8.11332V2.11531C11.3401 3.39797 12.5469 5.79056 12.6819 8.11332H9.40918ZM7.01599 1.73805C5.22417 3.26696 4.20144 5.67057 4.09098 8.11462H1.2478C1.42781 5.09019 3.75746 2.51483 7.01599 1.73805ZM1.28858 9.21474H4.10722C4.33631 11.464 5.41222 13.7537 7.14676 15.2495C3.97028 14.5487 1.62199 12.1364 1.27222 9.21474H1.28858ZM10.6567 15.3046C12.5244 13.6924 13.6857 11.5313 13.9295 9.21474H16.7931C16.4167 12.2236 13.9375 14.6775 10.6404 15.3046H10.6567Z" fill="#FF8A00"/>
</svg>
