<svg width="31" height="30" viewBox="0 0 31 30" fill="none" xmlns="http://www.w3.org/2000/svg">
<g id="Plane-2">
<path id="Shape" fill-rule="evenodd" clip-rule="evenodd" d="M15.8372 2.76912C16.4718 2.81832 17.0611 3.05895 17.49 3.44398C18.0297 4.02667 18.3201 4.73799 18.3165 5.46857V10.8675L28.2338 16.9413V18.9659L17.49 15.5915V23.015L21.6223 25.7145V27.0642L15.8372 25.7145L10.0521 27.0642V25.7145L14.1843 23.015V15.5915L3.44052 18.9659V16.9413L13.3578 10.8675V5.46857C13.3542 4.73799 13.6446 4.02667 14.1843 3.44398C14.6132 3.05895 15.2026 2.81832 15.8372 2.76912ZM15.8369 0.744141C14.545 0.795972 13.3265 1.25 12.432 2.01289C11.4165 2.97191 10.8641 4.20041 10.8783 5.46819V9.85481L1.95267 15.3212C1.32836 15.7036 0.960938 16.3036 0.960938 16.9409V18.9655C0.960626 19.633 1.36332 20.2578 2.03736 20.6355C2.7114 21.0133 3.57014 21.0954 4.33282 20.8551L11.7047 18.5403V22.0429L8.50636 24.1349C7.91755 24.5182 7.57395 25.0992 7.57248 25.7141V27.0638C7.57397 27.6979 7.93919 28.2948 8.55924 28.6766C9.17929 29.0583 9.98254 29.1808 10.7295 29.0075L15.8369 27.8197L20.9443 29.0075C21.6913 29.1808 22.4945 29.0583 23.1146 28.6766C23.7346 28.2948 24.0998 27.6979 24.1013 27.0638V25.7141C24.0999 25.0992 23.7563 24.5182 23.1675 24.1349L19.9691 22.0429V18.5403L27.341 20.8551C28.1037 21.0954 28.9624 21.0133 29.6365 20.6355C30.3105 20.2578 30.7132 19.633 30.7129 18.9655V16.9409C30.7129 16.3036 30.3455 15.7036 29.7211 15.3212L20.7956 9.85481V5.46819C20.8098 4.20041 20.2574 2.97191 19.2419 2.01289C18.3473 1.25 17.1288 0.795972 15.8369 0.744141Z" fill="black"/>
</g>
</svg>
