<svg width="44" height="27" viewBox="0 0 44 27" fill="none" xmlns="http://www.w3.org/2000/svg">
<path fill-rule="evenodd" clip-rule="evenodd" d="M38.0604 3.83895C38.6658 3.80041 39.2621 4.00156 39.7204 4.39895C40.7204 5.39895 38.7204 8.67895 37.7204 9.39895L25.7204 17.399L8.7204 23.649L3.7204 19.399L9.7204 20.399L21.7204 13.399L9.7204 5.39895L10.7204 4.39895L28.7204 8.39895L35.7204 4.39895C36.4486 4.03933 37.2483 3.84794 38.0604 3.83895ZM38.0604 0.838953C36.7416 0.847129 35.4432 1.16573 34.2704 1.76895L28.2704 5.22895L11.4104 1.46895C10.4093 1.24792 9.36468 1.55339 8.6404 2.27895L7.6404 3.27895C7.0042 3.91491 6.68694 4.80279 6.77607 5.69791C6.86519 6.59304 7.35129 7.40093 8.1004 7.89895L16.1004 13.229L9.1904 17.229L4.2204 16.399C2.88637 16.171 1.56487 16.8644 0.994475 18.0917C0.424076 19.319 0.746029 20.7762 1.7804 21.649L6.7804 25.899C7.60962 26.608 8.75842 26.8109 9.7804 26.429L26.7804 20.179C27.0023 20.0975 27.2137 19.9901 27.4104 19.859L39.4104 11.859L39.5104 11.789C41.385 10.1953 42.6237 7.98042 43.0004 5.54895C43.1309 4.3359 42.7171 3.12738 41.8704 2.24895C40.8564 1.27195 39.4873 0.751744 38.0804 0.808953L38.0604 0.838953Z" fill="black"/>
</svg>
